<svg aria-hidden="true" style="position: absolute; width: 0; height: 0; overflow: hidden;" version="1.1" xmlns="http://www.w3.org/2000/svg" xmlns:xlink="http://www.w3.org/1999/xlink">
<defs>
<symbol id="icon-cart" viewBox="0 0 32 32">
<path d="M12 29c0 1.657-1.343 3-3 3s-3-1.343-3-3c0-1.657 1.343-3 3-3s3 1.343 3 3z"></path>
<path d="M32 29c0 1.657-1.343 3-3 3s-3-1.343-3-3c0-1.657 1.343-3 3-3s3 1.343 3 3z"></path>
<path d="M32 16v-12h-24c0-1.105-0.895-2-2-2h-6v2h4l1.502 12.877c-0.915 0.733-1.502 1.859-1.502 3.123 0 2.209 1.791 4 4 4h24v-2h-24c-1.105 0-2-0.895-2-2 0-0.007 0-0.014 0-0.020l26-3.98z"></path>
</symbol>
<symbol id="icon-search" viewBox="0 0 32 32">
<path d="M31.008 27.231l-7.58-6.447c-0.784-0.705-1.622-1.029-2.299-0.998 1.789-2.096 2.87-4.815 2.87-7.787 0-6.627-5.373-12-12-12s-12 5.373-12 12 5.373 12 12 12c2.972 0 5.691-1.081 7.787-2.87-0.031 0.677 0.293 1.515 0.998 2.299l6.447 7.58c1.104 1.226 2.907 1.33 4.007 0.23s0.997-2.903-0.23-4.007zM12 20c-4.418 0-8-3.582-8-8s3.582-8 8-8 8 3.582 8 8-3.582 8-8 8z"></path>
</symbol>
<symbol id="icon-menu" viewBox="0 0 32 32">
<path d="M2 6h28v6h-28zM2 14h28v6h-28zM2 22h28v6h-28z"></path>
</symbol>
<symbol id="icon-checkmark" viewBox="0 0 32 32">
<path d="M27 4l-15 15-7-7-5 5 12 12 20-20z"></path>
</symbol>
<symbol id="icon-mobile" viewBox="0 0 32 32">
<path d="M23 0h-14c-1.65 0-3 1.35-3 3v26c0 1.65 1.35 3 3 3h14c1.65 0 3-1.35 3-3v-26c0-1.65-1.35-3-3-3zM12 1.5h8v1h-8v-1zM16 30c-1.105 0-2-0.895-2-2s0.895-2 2-2 2 0.895 2 2-0.895 2-2 2zM24 24h-16v-20h16v20z"></path>
</symbol>
<symbol id="icon-paw" viewBox="0 0 26 28">
<path d="M12.187 7.375c0 1.75-0.906 3.828-2.922 3.828-2.531 0-4.062-3.187-4.062-5.375 0-1.75 0.906-3.828 2.922-3.828 2.547 0 4.062 3.187 4.062 5.375zM6.844 14.922c0 1.516-0.797 3.094-2.516 3.094-2.5 0-4.328-3.063-4.328-5.328 0-1.516 0.812-3.109 2.516-3.109 2.5 0 4.328 3.078 4.328 5.344zM13 14.5c3.828 0 9 5.516 9 9.203 0 1.984-1.625 2.297-3.219 2.297-2.094 0-3.781-1.406-5.781-1.406-2.094 0-3.875 1.391-6.141 1.391-1.516 0-2.859-0.516-2.859-2.281 0-3.703 5.172-9.203 9-9.203zM16.734 11.203c-2.016 0-2.922-2.078-2.922-3.828 0-2.188 1.516-5.375 4.062-5.375 2.016 0 2.922 2.078 2.922 3.828 0 2.188-1.531 5.375-4.062 5.375zM23.484 9.578c1.703 0 2.516 1.594 2.516 3.109 0 2.266-1.828 5.328-4.328 5.328-1.719 0-2.516-1.578-2.516-3.094 0-2.266 1.828-5.344 4.328-5.344z"></path>
</symbol>
<symbol id="icon-handshake" viewBox="0 0 36 28">
<path d="M3 18c1.313 0 1.313-2 0-2s-1.313 2 0 2zM26.016 17.094c-1.234-1.609-2.438-3.25-3.844-4.719l-1.953 2.188c-1.719 1.953-4.797 1.906-6.469-0.094-1.188-1.437-1.188-3.5 0.031-4.922l2.766-3.219c-0.969-0.5-2.141-0.328-3.187-0.328-0.922 0-1.813 0.375-2.469 1.031l-2.469 2.469h-2.422v8.5c0.688 0 1.312-0.094 1.859 0.438l4.641 4.562c0.953 0.922 2.187 1.734 3.547 1.734 0.703 0 1.453-0.234 1.953-0.734 1.172 0.406 2.531-0.25 2.891-1.453 0.75 0.063 1.437-0.172 1.984-0.688 0.359-0.328 0.828-0.984 0.781-1.5 0.141 0.141 0.484 0.156 0.672 0.156 1.859 0 2.828-1.953 1.687-3.422zM28.5 18h1.5v-8h-1.453l-2.453-2.812c-0.656-0.75-1.641-1.188-2.641-1.188h-2.609c-0.875 0-1.719 0.391-2.281 1.047l-3.266 3.797c-0.578 0.688-0.578 1.656-0.016 2.344 0.891 1.062 2.531 1.078 3.453 0.047l3.016-3.406c0.719-0.797 2.031-0.047 1.703 0.969 0.594 0.688 1.234 1.359 1.813 2.047 0.781 0.969 1.531 1.984 2.297 2.969 0.484 0.625 0.844 1.375 0.938 2.188zM33 18c1.313 0 1.313-2 0-2s-1.313 2 0 2zM36 9v10c0 0.547-0.453 1-1 1h-6.781c-0.562 1.359-1.797 2.266-3.234 2.469-0.672 0.984-1.703 1.734-2.859 1.984-0.859 1.094-2.25 1.75-3.641 1.656-2.578 1.453-5.484 0.187-7.406-1.703l-4.484-4.406h-5.594c-0.547 0-1-0.453-1-1v-10.5c0-0.547 0.453-1 1-1h6.578c1.813-1.813 3.062-3.5 5.781-3.5h1.828c1.016 0 2 0.313 2.828 0.875 0.828-0.562 1.813-0.875 2.828-0.875h2.609c2.969 0 4.203 1.937 6 4h5.547c0.547 0 1 0.453 1 1z"></path>
</symbol>
<symbol id="icon-shopping-cart" viewBox="0 0 24 24">
<path d="M11 21c0-0.552-0.225-1.053-0.586-1.414s-0.862-0.586-1.414-0.586-1.053 0.225-1.414 0.586-0.586 0.862-0.586 1.414 0.225 1.053 0.586 1.414 0.862 0.586 1.414 0.586 1.053-0.225 1.414-0.586 0.586-0.862 0.586-1.414zM22 21c0-0.552-0.225-1.053-0.586-1.414s-0.862-0.586-1.414-0.586-1.053 0.225-1.414 0.586-0.586 0.862-0.586 1.414 0.225 1.053 0.586 1.414 0.862 0.586 1.414 0.586 1.053-0.225 1.414-0.586 0.586-0.862 0.586-1.414zM7.221 7h14.57l-1.371 7.191c-0.046 0.228-0.166 0.425-0.332 0.568-0.18 0.156-0.413 0.246-0.688 0.241h-9.734c-0.232 0.003-0.451-0.071-0.626-0.203-0.19-0.143-0.329-0.351-0.379-0.603zM1 2h3.18l0.848 4.239c0.108 0.437 0.502 0.761 0.972 0.761h1.221l-0.4-2h-0.821c-0.552 0-1 0.448-1 1 0 0.053 0.004 0.105 0.012 0.155 0.004 0.028 0.010 0.057 0.017 0.084l1.671 8.347c0.149 0.751 0.57 1.383 1.14 1.811 0.521 0.392 1.17 0.613 1.854 0.603h9.706c0.748 0.015 1.455-0.261 1.995-0.727 0.494-0.426 0.848-1.013 0.985-1.683l1.602-8.402c0.103-0.543-0.252-1.066-0.795-1.17-0.065-0.013-0.13-0.019-0.187-0.018h-16.18l-0.84-4.196c-0.094-0.462-0.497-0.804-0.98-0.804h-4c-0.552 0-1 0.448-1 1s0.448 1 1 1z"></path>
</symbol>
<symbol id="icon-cross" viewBox="0 0 32 32">
<path d="M31.708 25.708c-0-0-0-0-0-0l-9.708-9.708 9.708-9.708c0-0 0-0 0-0 0.105-0.105 0.18-0.227 0.229-0.357 0.133-0.356 0.057-0.771-0.229-1.057l-4.586-4.586c-0.286-0.286-0.702-0.361-1.057-0.229-0.13 0.048-0.252 0.124-0.357 0.228 0 0-0 0-0 0l-9.708 9.708-9.708-9.708c-0-0-0-0-0-0-0.105-0.104-0.227-0.18-0.357-0.228-0.356-0.133-0.771-0.057-1.057 0.229l-4.586 4.586c-0.286 0.286-0.361 0.702-0.229 1.057 0.049 0.13 0.124 0.252 0.229 0.357 0 0 0 0 0 0l9.708 9.708-9.708 9.708c-0 0-0 0-0 0-0.104 0.105-0.18 0.227-0.229 0.357-0.133 0.355-0.057 0.771 0.229 1.057l4.586 4.586c0.286 0.286 0.702 0.361 1.057 0.229 0.13-0.049 0.252-0.124 0.357-0.229 0-0 0-0 0-0l9.708-9.708 9.708 9.708c0 0 0 0 0 0 0.105 0.105 0.227 0.18 0.357 0.229 0.356 0.133 0.771 0.057 1.057-0.229l4.586-4.586c0.286-0.286 0.362-0.702 0.229-1.057-0.049-0.13-0.124-0.252-0.229-0.357z"></path>
</symbol>
<symbol id="icon-double_arrow" viewBox="0 0 24 24">
<path d="M8.484 5.016l5.016 6.984-5.016 6.984h-4.5l5.016-6.984-5.016-6.984h4.5zM15.516 5.016l4.969 6.984-4.969 6.984h-4.5l4.969-6.984-4.969-6.984h4.5z"></path>
</symbol>
</defs>
</svg>
